# xmcd
#
# Track frame offsets: 
#        150
#        19186
#        37733
#        54422
#        69142
#        91333
#        107732
#        127319
#        147895
#        163808
#        182981
#        198873
#        217122
#
# Disc length: 3091 seconds
#
# Revision: 0
# Processed by: cddbd v1.5.2PL0 Copyright (c) Steve Scherf et al.
# Submitted via: ExactAudioCopy v0.99pb3
#
DISCID=b80c110d
DTITLE=Tim McGraw - McGraw - The ultimate collection cd4
DYEAR=2016
DGENRE=Country
TTITLE0=Free man
TTITLE1=Bang, bang, bang
TTITLE2=Candle for a cowboy
TTITLE3=How forever feels
TTITLE4=The joker
TTITLE5=I drink
TTITLE6=Shotgun rider
TTITLE7=Louisiana
TTITLE8=Wherever the trail may lead
TTITLE9=Don't take the girl (acoustic)
TTITLE10=Just when I needed you most (live)
TTITLE11=Felt good on my lips (live video version)
TTITLE12=The ride (live)
EXTD=
EXTT0=
EXTT1=
EXTT2=
EXTT3=
EXTT4=
EXTT5=
EXTT6=
EXTT7=
EXTT8=
EXTT9=
EXTT10=
EXTT11=
EXTT12=
PLAYORDER=
